<svg width="40" height="40" viewBox="0 0 40 40" fill="none" xmlns="http://www.w3.org/2000/svg">
<g opacity="0.66">
<path d="M13.333 31.6667H8.33301V15H13.333V31.6667ZM31.6663 31.6667H26.6663V22.7633C26.6663 20.4433 25.8397 19.2883 24.2013 19.2883C22.903 19.2883 22.0797 19.935 21.6663 21.23C21.6663 23.3333 21.6663 31.6667 21.6663 31.6667H16.6663C16.6663 31.6667 16.733 16.6667 16.6663 15H20.613L20.918 18.3333H21.0213C22.0463 16.6667 23.6847 15.5367 25.9313 15.5367C27.6397 15.5367 29.0213 16.0117 30.0763 17.205C31.138 18.4 31.6663 20.0033 31.6663 22.255V31.6667Z" fill="#F1F1F1"/>
<path d="M10.8333 13.3333C12.2601 13.3333 13.4167 12.214 13.4167 10.8333C13.4167 9.45254 12.2601 8.33325 10.8333 8.33325C9.4066 8.33325 8.25 9.45254 8.25 10.8333C8.25 12.214 9.4066 13.3333 10.8333 13.3333Z" fill="#F1F1F1"/>
</g>
</svg>
